<mxfile host="app.diagrams.net" modified="2024-03-22T22:15:17.047Z" agent="Mozilla/5.0 (Windows NT 10.0; Win64; x64) AppleWebKit/537.36 (KHTML, like Gecko) Chrome/122.0.0.0 Safari/537.36" etag="0SrPYZWXx3Rcx504Epk4" version="24.0.8" type="device">
  <diagram id="C5RBs43oDa-KdzZeNtuy" name="Page-1">
    <mxGraphModel dx="2120" dy="1843" grid="1" gridSize="10" guides="1" tooltips="1" connect="1" arrows="1" fold="1" page="1" pageScale="1" pageWidth="827" pageHeight="1169" math="0" shadow="0">
      <root>
        <mxCell id="WIyWlLk6GJQsqaUBKTNV-0" />
        <mxCell id="WIyWlLk6GJQsqaUBKTNV-1" parent="WIyWlLk6GJQsqaUBKTNV-0" />
        <mxCell id="S1FrCzbqNe2RIB8WHqGn-2" value="&lt;b&gt;START&lt;/b&gt;" style="strokeWidth=2;html=1;shape=mxgraph.flowchart.start_1;whiteSpace=wrap;" vertex="1" parent="WIyWlLk6GJQsqaUBKTNV-1">
          <mxGeometry x="360" y="-230" width="100" height="60" as="geometry" />
        </mxCell>
        <mxCell id="S1FrCzbqNe2RIB8WHqGn-3" value="&lt;b&gt;END / TERMINATION&lt;/b&gt;" style="strokeWidth=2;html=1;shape=mxgraph.flowchart.start_1;whiteSpace=wrap;" vertex="1" parent="WIyWlLk6GJQsqaUBKTNV-1">
          <mxGeometry x="420" y="1760" width="190" height="110" as="geometry" />
        </mxCell>
        <mxCell id="S1FrCzbqNe2RIB8WHqGn-5" value="The hangman game is initiated.. &lt;b&gt;(INITIALIZATION)&lt;/b&gt;" style="text;html=1;strokeColor=none;fillColor=none;align=center;verticalAlign=middle;whiteSpace=wrap;rounded=0;fontFamily=Times New Roman;fontSize=12;" vertex="1" parent="WIyWlLk6GJQsqaUBKTNV-1">
          <mxGeometry x="470" y="-215" width="170" height="35" as="geometry" />
        </mxCell>
        <mxCell id="S1FrCzbqNe2RIB8WHqGn-6" value="" style="endArrow=classic;html=1;rounded=0;fontFamily=Times New Roman;fontSize=12;exitX=0.5;exitY=1;exitDx=0;exitDy=0;exitPerimeter=0;" edge="1" parent="WIyWlLk6GJQsqaUBKTNV-1" source="S1FrCzbqNe2RIB8WHqGn-2">
          <mxGeometry width="50" height="50" relative="1" as="geometry">
            <mxPoint x="400" y="140" as="sourcePoint" />
            <mxPoint x="410" y="-90" as="targetPoint" />
          </mxGeometry>
        </mxCell>
        <mxCell id="S1FrCzbqNe2RIB8WHqGn-7" value="RandomWord (Black Process) is invoked !" style="rounded=1;whiteSpace=wrap;html=1;absoluteArcSize=1;arcSize=14;strokeWidth=2;fontFamily=Times New Roman;fontSize=12;align=left;" vertex="1" parent="WIyWlLk6GJQsqaUBKTNV-1">
          <mxGeometry x="341.25" y="-90" width="137.5" height="90" as="geometry" />
        </mxCell>
        <mxCell id="S1FrCzbqNe2RIB8WHqGn-8" value="The &lt;b&gt;RandomWord&lt;/b&gt; Process is invoked which generates&lt;br&gt;a random 5 - 15 letter word to be guessed, for the user." style="text;html=1;align=left;verticalAlign=middle;resizable=0;points=[];autosize=1;strokeColor=none;fillColor=none;fontSize=12;fontFamily=Times New Roman;" vertex="1" parent="WIyWlLk6GJQsqaUBKTNV-1">
          <mxGeometry x="490" y="-90" width="290" height="40" as="geometry" />
        </mxCell>
        <mxCell id="S1FrCzbqNe2RIB8WHqGn-9" value="A maximum 10 letter guess will be given, as per the game rules." style="text;html=1;align=center;verticalAlign=middle;resizable=0;points=[];autosize=1;strokeColor=none;fillColor=none;fontSize=12;fontFamily=Times New Roman;" vertex="1" parent="WIyWlLk6GJQsqaUBKTNV-1">
          <mxGeometry x="478.75" y="-50" width="330" height="30" as="geometry" />
        </mxCell>
        <mxCell id="S1FrCzbqNe2RIB8WHqGn-10" value="" style="endArrow=classic;html=1;rounded=0;fontFamily=Times New Roman;fontSize=12;exitX=0.5;exitY=1;exitDx=0;exitDy=0;" edge="1" parent="WIyWlLk6GJQsqaUBKTNV-1" source="S1FrCzbqNe2RIB8WHqGn-7">
          <mxGeometry width="50" height="50" relative="1" as="geometry">
            <mxPoint x="370" y="160" as="sourcePoint" />
            <mxPoint x="410" y="90" as="targetPoint" />
          </mxGeometry>
        </mxCell>
        <mxCell id="S1FrCzbqNe2RIB8WHqGn-11" value="After that, another black process (Guess) will be invoked, which will guess the letter on behalf of the user.&amp;nbsp;" style="rounded=1;whiteSpace=wrap;html=1;absoluteArcSize=1;arcSize=14;strokeWidth=2;fontFamily=Times New Roman;fontSize=12;align=left;" vertex="1" parent="WIyWlLk6GJQsqaUBKTNV-1">
          <mxGeometry x="351.25" y="330" width="138.75" height="110" as="geometry" />
        </mxCell>
        <mxCell id="S1FrCzbqNe2RIB8WHqGn-12" value="It guesses the letter in the word, which matches the word, by using a special AI,&amp;nbsp;&lt;br&gt;coded onto the process." style="text;html=1;align=left;verticalAlign=middle;resizable=0;points=[];autosize=1;strokeColor=none;fillColor=none;fontSize=12;fontFamily=Times New Roman;" vertex="1" parent="WIyWlLk6GJQsqaUBKTNV-1">
          <mxGeometry x="495" y="355" width="410" height="40" as="geometry" />
        </mxCell>
        <mxCell id="S1FrCzbqNe2RIB8WHqGn-13" value="Is the user, itself will be&amp;nbsp;&lt;br&gt;guessing the missing word?" style="strokeWidth=2;html=1;shape=mxgraph.flowchart.decision;whiteSpace=wrap;fontFamily=Times New Roman;fontSize=12;" vertex="1" parent="WIyWlLk6GJQsqaUBKTNV-1">
          <mxGeometry x="325" y="90" width="170" height="160" as="geometry" />
        </mxCell>
        <mxCell id="S1FrCzbqNe2RIB8WHqGn-14" value="" style="endArrow=classic;html=1;rounded=0;fontFamily=Times New Roman;fontSize=12;exitX=0.5;exitY=1;exitDx=0;exitDy=0;exitPerimeter=0;" edge="1" parent="WIyWlLk6GJQsqaUBKTNV-1" source="S1FrCzbqNe2RIB8WHqGn-13">
          <mxGeometry width="50" height="50" relative="1" as="geometry">
            <mxPoint x="370" y="260" as="sourcePoint" />
            <mxPoint x="410" y="330" as="targetPoint" />
          </mxGeometry>
        </mxCell>
        <mxCell id="S1FrCzbqNe2RIB8WHqGn-15" value="&lt;b&gt;NO&lt;/b&gt;" style="edgeLabel;html=1;align=center;verticalAlign=middle;resizable=0;points=[];fontSize=12;fontFamily=Times New Roman;" vertex="1" connectable="0" parent="S1FrCzbqNe2RIB8WHqGn-14">
          <mxGeometry x="-0.3625" y="-1" relative="1" as="geometry">
            <mxPoint as="offset" />
          </mxGeometry>
        </mxCell>
        <mxCell id="S1FrCzbqNe2RIB8WHqGn-16" value="A special BlackProcess known as &lt;b&gt;Guess &lt;/b&gt;will be invoked&amp;nbsp;" style="text;html=1;align=center;verticalAlign=middle;resizable=0;points=[];autosize=1;strokeColor=none;fillColor=none;fontSize=12;fontFamily=Times New Roman;" vertex="1" parent="WIyWlLk6GJQsqaUBKTNV-1">
          <mxGeometry x="490" y="330" width="300" height="30" as="geometry" />
        </mxCell>
        <mxCell id="S1FrCzbqNe2RIB8WHqGn-17" value="" style="endArrow=classic;html=1;rounded=0;fontFamily=Times New Roman;fontSize=12;exitX=0;exitY=0.5;exitDx=0;exitDy=0;exitPerimeter=0;" edge="1" parent="WIyWlLk6GJQsqaUBKTNV-1" source="S1FrCzbqNe2RIB8WHqGn-13">
          <mxGeometry width="50" height="50" relative="1" as="geometry">
            <mxPoint x="320" y="170" as="sourcePoint" />
            <mxPoint x="180" y="170" as="targetPoint" />
          </mxGeometry>
        </mxCell>
        <mxCell id="S1FrCzbqNe2RIB8WHqGn-18" value="&lt;b&gt;YES&lt;/b&gt;" style="edgeLabel;html=1;align=center;verticalAlign=middle;resizable=0;points=[];fontSize=12;fontFamily=Times New Roman;" vertex="1" connectable="0" parent="S1FrCzbqNe2RIB8WHqGn-17">
          <mxGeometry x="0.0207" relative="1" as="geometry">
            <mxPoint as="offset" />
          </mxGeometry>
        </mxCell>
        <mxCell id="S1FrCzbqNe2RIB8WHqGn-19" value="If yes, then the user will be given chance, to guess the correct letter for the word match (without AI)." style="rounded=1;whiteSpace=wrap;html=1;absoluteArcSize=1;arcSize=14;strokeWidth=2;fontFamily=Times New Roman;fontSize=12;align=left;" vertex="1" parent="WIyWlLk6GJQsqaUBKTNV-1">
          <mxGeometry x="40" y="120" width="140" height="110" as="geometry" />
        </mxCell>
        <mxCell id="S1FrCzbqNe2RIB8WHqGn-20" value="If the user doesn&#39;t want to guess, then the&amp;nbsp;&lt;br&gt;AI will takeover the task from the user to guess&lt;br&gt;&amp;nbsp;the correct match. Meanwhile, user can attempt&lt;br&gt;&amp;nbsp;the guessing anytime (HE/ SHE) wants." style="text;html=1;align=left;verticalAlign=middle;resizable=0;points=[];autosize=1;strokeColor=none;fillColor=none;fontSize=12;fontFamily=Times New Roman;" vertex="1" parent="WIyWlLk6GJQsqaUBKTNV-1">
          <mxGeometry x="510" y="135" width="250" height="70" as="geometry" />
        </mxCell>
        <mxCell id="S1FrCzbqNe2RIB8WHqGn-21" value="" style="endArrow=classic;html=1;rounded=0;fontFamily=Times New Roman;fontSize=12;exitX=0.5;exitY=1;exitDx=0;exitDy=0;" edge="1" parent="WIyWlLk6GJQsqaUBKTNV-1" source="S1FrCzbqNe2RIB8WHqGn-19">
          <mxGeometry width="50" height="50" relative="1" as="geometry">
            <mxPoint x="410" y="370" as="sourcePoint" />
            <mxPoint x="110" y="530" as="targetPoint" />
          </mxGeometry>
        </mxCell>
        <mxCell id="S1FrCzbqNe2RIB8WHqGn-22" value="" style="endArrow=classic;html=1;rounded=0;fontFamily=Times New Roman;fontSize=12;exitX=0;exitY=0.5;exitDx=0;exitDy=0;" edge="1" parent="WIyWlLk6GJQsqaUBKTNV-1" source="S1FrCzbqNe2RIB8WHqGn-11">
          <mxGeometry width="50" height="50" relative="1" as="geometry">
            <mxPoint x="410" y="370" as="sourcePoint" />
            <mxPoint x="110" y="385" as="targetPoint" />
          </mxGeometry>
        </mxCell>
        <mxCell id="S1FrCzbqNe2RIB8WHqGn-23" value="The guessing process is initiated..." style="text;html=1;align=center;verticalAlign=middle;resizable=0;points=[];autosize=1;strokeColor=none;fillColor=none;fontSize=12;fontFamily=Times New Roman;" vertex="1" parent="WIyWlLk6GJQsqaUBKTNV-1">
          <mxGeometry x="120" y="350" width="190" height="30" as="geometry" />
        </mxCell>
        <mxCell id="S1FrCzbqNe2RIB8WHqGn-24" value="The guessing process is initiated..." style="text;html=1;align=center;verticalAlign=middle;resizable=0;points=[];autosize=1;strokeColor=none;fillColor=none;fontSize=12;fontFamily=Times New Roman;rotation=270;" vertex="1" parent="WIyWlLk6GJQsqaUBKTNV-1">
          <mxGeometry y="330" width="190" height="30" as="geometry" />
        </mxCell>
        <mxCell id="S1FrCzbqNe2RIB8WHqGn-25" value="If the guess, is a correct match&lt;br&gt;for the word?" style="strokeWidth=2;html=1;shape=mxgraph.flowchart.decision;whiteSpace=wrap;fontFamily=Times New Roman;fontSize=12;" vertex="1" parent="WIyWlLk6GJQsqaUBKTNV-1">
          <mxGeometry x="22.5" y="530" width="177.5" height="170" as="geometry" />
        </mxCell>
        <mxCell id="S1FrCzbqNe2RIB8WHqGn-26" value="" style="endArrow=classic;html=1;rounded=0;fontFamily=Times New Roman;fontSize=12;exitX=1;exitY=0.5;exitDx=0;exitDy=0;exitPerimeter=0;" edge="1" parent="WIyWlLk6GJQsqaUBKTNV-1" source="S1FrCzbqNe2RIB8WHqGn-25">
          <mxGeometry width="50" height="50" relative="1" as="geometry">
            <mxPoint x="360" y="570" as="sourcePoint" />
            <mxPoint x="380" y="615" as="targetPoint" />
          </mxGeometry>
        </mxCell>
        <mxCell id="S1FrCzbqNe2RIB8WHqGn-27" value="&lt;b&gt;YES&lt;/b&gt;" style="edgeLabel;html=1;align=center;verticalAlign=middle;resizable=0;points=[];fontSize=12;fontFamily=Times New Roman;" vertex="1" connectable="0" parent="S1FrCzbqNe2RIB8WHqGn-26">
          <mxGeometry x="0.0556" y="3" relative="1" as="geometry">
            <mxPoint y="1" as="offset" />
          </mxGeometry>
        </mxCell>
        <mxCell id="S1FrCzbqNe2RIB8WHqGn-28" value="Then, the process will return 1 as an output. Hereby, increasing, 2 minutes more to the total explore time." style="rounded=1;whiteSpace=wrap;html=1;absoluteArcSize=1;arcSize=14;strokeWidth=2;fontFamily=Times New Roman;fontSize=12;align=left;" vertex="1" parent="WIyWlLk6GJQsqaUBKTNV-1">
          <mxGeometry x="380" y="555" width="140" height="120" as="geometry" />
        </mxCell>
        <mxCell id="S1FrCzbqNe2RIB8WHqGn-29" value="&lt;b&gt;&lt;u&gt;VARIABLES USED&lt;/u&gt;&lt;/b&gt;&amp;nbsp;:&lt;br&gt;- totalExploretime - (initialized to &lt;br&gt;some fixed&amp;nbsp;value pre-determined &lt;br&gt;by the rules for the game or system.&lt;br&gt;- letterGuesses - the number of chances&lt;br&gt;&amp;nbsp;given to the user, for guessing the correct&amp;nbsp;&lt;br&gt;letter" style="text;html=1;align=left;verticalAlign=middle;resizable=0;points=[];autosize=1;strokeColor=none;fillColor=none;fontSize=12;fontFamily=Times New Roman;" vertex="1" parent="WIyWlLk6GJQsqaUBKTNV-1">
          <mxGeometry x="160" y="-240" width="230" height="110" as="geometry" />
        </mxCell>
        <mxCell id="S1FrCzbqNe2RIB8WHqGn-30" value="totalExploretime +=2" style="text;html=1;align=center;verticalAlign=middle;resizable=0;points=[];autosize=1;strokeColor=none;fillColor=none;fontSize=12;fontFamily=Times New Roman;" vertex="1" parent="WIyWlLk6GJQsqaUBKTNV-1">
          <mxGeometry x="590" y="600" width="130" height="30" as="geometry" />
        </mxCell>
        <mxCell id="S1FrCzbqNe2RIB8WHqGn-31" value="" style="endArrow=classic;html=1;rounded=0;fontFamily=Times New Roman;fontSize=12;exitX=1;exitY=0.5;exitDx=0;exitDy=0;" edge="1" parent="WIyWlLk6GJQsqaUBKTNV-1" source="S1FrCzbqNe2RIB8WHqGn-28">
          <mxGeometry width="50" height="50" relative="1" as="geometry">
            <mxPoint x="380" y="770" as="sourcePoint" />
            <mxPoint x="590" y="615" as="targetPoint" />
          </mxGeometry>
        </mxCell>
        <mxCell id="S1FrCzbqNe2RIB8WHqGn-32" value="&lt;span style=&quot;color: rgb(0, 0, 0); font-family: &amp;quot;Times New Roman&amp;quot;; font-size: 12px; font-variant-ligatures: normal; font-variant-caps: normal; letter-spacing: normal; orphans: 2; text-align: center; text-indent: 0px; text-transform: none; widows: 2; word-spacing: 0px; -webkit-text-stroke-width: 0px; background-color: rgb(248, 249, 250); text-decoration-thickness: initial; text-decoration-style: initial; text-decoration-color: initial; float: none; display: inline !important;&quot;&gt;&lt;i style=&quot;&quot;&gt;&lt;b&gt;totalExploretime +=2&lt;/b&gt;&lt;/i&gt;&lt;/span&gt;" style="rounded=1;whiteSpace=wrap;html=1;absoluteArcSize=1;arcSize=14;strokeWidth=2;fontFamily=Times New Roman;fontSize=12;" vertex="1" parent="WIyWlLk6GJQsqaUBKTNV-1">
          <mxGeometry x="590" y="590" width="130" height="50" as="geometry" />
        </mxCell>
        <mxCell id="S1FrCzbqNe2RIB8WHqGn-33" value="" style="endArrow=classic;html=1;rounded=0;fontFamily=Times New Roman;fontSize=12;exitX=0.5;exitY=1;exitDx=0;exitDy=0;exitPerimeter=0;" edge="1" parent="WIyWlLk6GJQsqaUBKTNV-1" source="S1FrCzbqNe2RIB8WHqGn-25">
          <mxGeometry width="50" height="50" relative="1" as="geometry">
            <mxPoint x="380" y="770" as="sourcePoint" />
            <mxPoint x="110" y="810" as="targetPoint" />
          </mxGeometry>
        </mxCell>
        <mxCell id="S1FrCzbqNe2RIB8WHqGn-34" value="&lt;b&gt;NO&lt;/b&gt;" style="edgeLabel;html=1;align=center;verticalAlign=middle;resizable=0;points=[];fontSize=12;fontFamily=Times New Roman;" vertex="1" connectable="0" parent="S1FrCzbqNe2RIB8WHqGn-33">
          <mxGeometry x="-0.1996" y="-2" relative="1" as="geometry">
            <mxPoint as="offset" />
          </mxGeometry>
        </mxCell>
        <mxCell id="S1FrCzbqNe2RIB8WHqGn-35" value="Then the process, will return -1 as an output, if the letter chosen for the word is wrong." style="rounded=1;whiteSpace=wrap;html=1;absoluteArcSize=1;arcSize=14;strokeWidth=2;fontFamily=Times New Roman;fontSize=12;align=left;" vertex="1" parent="WIyWlLk6GJQsqaUBKTNV-1">
          <mxGeometry x="36.25" y="810" width="150" height="100" as="geometry" />
        </mxCell>
        <mxCell id="S1FrCzbqNe2RIB8WHqGn-36" value="" style="endArrow=classic;html=1;rounded=0;fontFamily=Times New Roman;fontSize=12;exitX=0.5;exitY=1;exitDx=0;exitDy=0;" edge="1" parent="WIyWlLk6GJQsqaUBKTNV-1" source="S1FrCzbqNe2RIB8WHqGn-35">
          <mxGeometry width="50" height="50" relative="1" as="geometry">
            <mxPoint x="380" y="1140" as="sourcePoint" />
            <mxPoint x="111" y="980" as="targetPoint" />
          </mxGeometry>
        </mxCell>
        <mxCell id="S1FrCzbqNe2RIB8WHqGn-37" value="&lt;i&gt;&lt;b&gt;totalExploretime +=3&lt;/b&gt;&lt;/i&gt;" style="rounded=1;whiteSpace=wrap;html=1;absoluteArcSize=1;arcSize=14;strokeWidth=2;fontFamily=Times New Roman;fontSize=12;" vertex="1" parent="WIyWlLk6GJQsqaUBKTNV-1">
          <mxGeometry x="50" y="980" width="120" height="50" as="geometry" />
        </mxCell>
        <mxCell id="S1FrCzbqNe2RIB8WHqGn-38" value="After each letter guesses, &lt;b style=&quot;font-style: italic;&quot;&gt;letterGuesses-=1&lt;/b&gt;,&amp;nbsp;&lt;br&gt;regardless of correct match or not." style="text;html=1;align=center;verticalAlign=middle;resizable=0;points=[];autosize=1;strokeColor=none;fillColor=none;fontSize=12;fontFamily=Times New Roman;" vertex="1" parent="WIyWlLk6GJQsqaUBKTNV-1">
          <mxGeometry x="140" y="650" width="240" height="40" as="geometry" />
        </mxCell>
        <mxCell id="S1FrCzbqNe2RIB8WHqGn-39" value="" style="endArrow=classic;html=1;rounded=0;fontFamily=Times New Roman;fontSize=12;entryX=0;entryY=0.5;entryDx=0;entryDy=0;entryPerimeter=0;exitX=-0.002;exitY=0.605;exitDx=0;exitDy=0;exitPerimeter=0;" edge="1" parent="WIyWlLk6GJQsqaUBKTNV-1" source="S1FrCzbqNe2RIB8WHqGn-35" target="S1FrCzbqNe2RIB8WHqGn-25">
          <mxGeometry width="50" height="50" relative="1" as="geometry">
            <mxPoint x="30" y="870" as="sourcePoint" />
            <mxPoint x="430" y="1020" as="targetPoint" />
            <Array as="points">
              <mxPoint x="-40" y="870" />
              <mxPoint x="-40" y="615" />
            </Array>
          </mxGeometry>
        </mxCell>
        <mxCell id="S1FrCzbqNe2RIB8WHqGn-40" value="" style="endArrow=classic;html=1;rounded=0;fontFamily=Times New Roman;fontSize=12;exitX=0.5;exitY=0;exitDx=0;exitDy=0;" edge="1" parent="WIyWlLk6GJQsqaUBKTNV-1" source="S1FrCzbqNe2RIB8WHqGn-28">
          <mxGeometry width="50" height="50" relative="1" as="geometry">
            <mxPoint x="450" y="550" as="sourcePoint" />
            <mxPoint x="110" y="480" as="targetPoint" />
            <Array as="points">
              <mxPoint x="450" y="480" />
            </Array>
          </mxGeometry>
        </mxCell>
        <mxCell id="S1FrCzbqNe2RIB8WHqGn-41" value="Another guess.." style="text;html=1;align=center;verticalAlign=middle;resizable=0;points=[];autosize=1;strokeColor=none;fillColor=none;fontSize=12;fontFamily=Times New Roman;" vertex="1" parent="WIyWlLk6GJQsqaUBKTNV-1">
          <mxGeometry x="341.25" y="470" width="100" height="30" as="geometry" />
        </mxCell>
        <mxCell id="S1FrCzbqNe2RIB8WHqGn-42" value="Another guess.." style="text;html=1;align=center;verticalAlign=middle;resizable=0;points=[];autosize=1;strokeColor=none;fillColor=none;fontSize=12;fontFamily=Times New Roman;rotation=90;" vertex="1" parent="WIyWlLk6GJQsqaUBKTNV-1">
          <mxGeometry x="-80" y="730" width="100" height="30" as="geometry" />
        </mxCell>
        <mxCell id="S1FrCzbqNe2RIB8WHqGn-43" value="" style="endArrow=classic;html=1;rounded=0;fontFamily=Times New Roman;fontSize=12;exitX=0.5;exitY=1;exitDx=0;exitDy=0;" edge="1" parent="WIyWlLk6GJQsqaUBKTNV-1" source="S1FrCzbqNe2RIB8WHqGn-28">
          <mxGeometry width="50" height="50" relative="1" as="geometry">
            <mxPoint x="380" y="860" as="sourcePoint" />
            <mxPoint x="450" y="840" as="targetPoint" />
          </mxGeometry>
        </mxCell>
        <mxCell id="S1FrCzbqNe2RIB8WHqGn-44" value="After several guesses and how much we&amp;nbsp;&lt;br&gt;correctly guessed the letters for the word, a Black Process called &lt;b&gt;ShouldSolve&lt;/b&gt;, &lt;br&gt;will be invoked, that evaluates and gives us the idea of the probability of our winning and losing chances." style="text;html=1;align=left;verticalAlign=middle;resizable=0;points=[];autosize=1;strokeColor=none;fillColor=none;fontSize=12;fontFamily=Times New Roman;" vertex="1" parent="WIyWlLk6GJQsqaUBKTNV-1">
          <mxGeometry x="450" y="690" width="530" height="60" as="geometry" />
        </mxCell>
        <mxCell id="S1FrCzbqNe2RIB8WHqGn-45" value="It will return 1, if there are more probability of us to win the game, or else 0." style="text;html=1;align=center;verticalAlign=middle;resizable=0;points=[];autosize=1;strokeColor=none;fillColor=none;fontSize=12;fontFamily=Times New Roman;" vertex="1" parent="WIyWlLk6GJQsqaUBKTNV-1">
          <mxGeometry x="440" y="750" width="390" height="30" as="geometry" />
        </mxCell>
        <mxCell id="S1FrCzbqNe2RIB8WHqGn-46" value="&lt;i&gt;&lt;b&gt;totalExploretime+=4&lt;/b&gt;&lt;/i&gt;" style="rounded=1;whiteSpace=wrap;html=1;absoluteArcSize=1;arcSize=14;strokeWidth=2;fontFamily=Times New Roman;fontSize=12;" vertex="1" parent="WIyWlLk6GJQsqaUBKTNV-1">
          <mxGeometry x="360" y="840" width="180" height="50" as="geometry" />
        </mxCell>
        <mxCell id="S1FrCzbqNe2RIB8WHqGn-47" value="After so many successful guesses, if we correctly guessed the solution for the word, then..." style="text;html=1;align=center;verticalAlign=middle;resizable=0;points=[];autosize=1;strokeColor=none;fillColor=none;fontSize=12;fontFamily=Times New Roman;" vertex="1" parent="WIyWlLk6GJQsqaUBKTNV-1">
          <mxGeometry x="440" y="780" width="460" height="30" as="geometry" />
        </mxCell>
        <mxCell id="S1FrCzbqNe2RIB8WHqGn-48" value="" style="endArrow=classic;html=1;rounded=0;fontFamily=Times New Roman;fontSize=12;exitX=1;exitY=0.5;exitDx=0;exitDy=0;" edge="1" parent="WIyWlLk6GJQsqaUBKTNV-1" source="S1FrCzbqNe2RIB8WHqGn-46">
          <mxGeometry width="50" height="50" relative="1" as="geometry">
            <mxPoint x="450" y="760" as="sourcePoint" />
            <mxPoint x="630" y="865" as="targetPoint" />
          </mxGeometry>
        </mxCell>
        <mxCell id="S1FrCzbqNe2RIB8WHqGn-49" value="We win the game,&lt;br&gt;with a congratulations message." style="rounded=1;whiteSpace=wrap;html=1;absoluteArcSize=1;arcSize=14;strokeWidth=2;fontFamily=Times New Roman;fontSize=12;align=left;" vertex="1" parent="WIyWlLk6GJQsqaUBKTNV-1">
          <mxGeometry x="630" y="820" width="100" height="100" as="geometry" />
        </mxCell>
        <mxCell id="S1FrCzbqNe2RIB8WHqGn-50" value="" style="endArrow=classic;html=1;rounded=0;fontFamily=Times New Roman;fontSize=12;entryX=0.5;entryY=0;entryDx=0;entryDy=0;entryPerimeter=0;" edge="1" parent="WIyWlLk6GJQsqaUBKTNV-1" target="S1FrCzbqNe2RIB8WHqGn-3">
          <mxGeometry width="50" height="50" relative="1" as="geometry">
            <mxPoint x="670" y="920" as="sourcePoint" />
            <mxPoint x="500" y="930" as="targetPoint" />
            <Array as="points">
              <mxPoint x="670" y="1060" />
              <mxPoint x="510" y="1060" />
            </Array>
          </mxGeometry>
        </mxCell>
        <mxCell id="S1FrCzbqNe2RIB8WHqGn-51" value="" style="endArrow=classic;html=1;rounded=0;fontFamily=Times New Roman;fontSize=12;exitX=1;exitY=0.5;exitDx=0;exitDy=0;" edge="1" parent="WIyWlLk6GJQsqaUBKTNV-1" source="S1FrCzbqNe2RIB8WHqGn-35" target="S1FrCzbqNe2RIB8WHqGn-52">
          <mxGeometry width="50" height="50" relative="1" as="geometry">
            <mxPoint x="360" y="930" as="sourcePoint" />
            <mxPoint x="130" y="1100" as="targetPoint" />
            <Array as="points">
              <mxPoint x="260" y="860" />
              <mxPoint x="260" y="1230" />
            </Array>
          </mxGeometry>
        </mxCell>
        <mxCell id="S1FrCzbqNe2RIB8WHqGn-52" value="&lt;i&gt;&lt;b&gt;totalExploretime+=15&lt;/b&gt;&lt;/i&gt;" style="rounded=1;whiteSpace=wrap;html=1;absoluteArcSize=1;arcSize=14;strokeWidth=2;fontFamily=Times New Roman;fontSize=12;" vertex="1" parent="WIyWlLk6GJQsqaUBKTNV-1">
          <mxGeometry x="10" y="1200" width="140" height="60" as="geometry" />
        </mxCell>
        <mxCell id="S1FrCzbqNe2RIB8WHqGn-53" value="After so many unsuccessful guesses, if we incorrectly guessed the wrong solution for the word, then..." style="text;html=1;align=center;verticalAlign=middle;resizable=0;points=[];autosize=1;strokeColor=none;fillColor=none;fontSize=12;fontFamily=Times New Roman;rotation=90;" vertex="1" parent="WIyWlLk6GJQsqaUBKTNV-1">
          <mxGeometry x="20" y="1020" width="510" height="30" as="geometry" />
        </mxCell>
        <mxCell id="S1FrCzbqNe2RIB8WHqGn-54" value="" style="endArrow=classic;html=1;rounded=0;fontFamily=Times New Roman;fontSize=12;exitX=0;exitY=0.5;exitDx=0;exitDy=0;" edge="1" parent="WIyWlLk6GJQsqaUBKTNV-1" source="S1FrCzbqNe2RIB8WHqGn-52">
          <mxGeometry width="50" height="50" relative="1" as="geometry">
            <mxPoint x="390" y="1120" as="sourcePoint" />
            <mxPoint x="-40" y="870" as="targetPoint" />
            <Array as="points">
              <mxPoint x="-40" y="1230" />
            </Array>
          </mxGeometry>
        </mxCell>
        <mxCell id="S1FrCzbqNe2RIB8WHqGn-55" value="" style="endArrow=classic;html=1;rounded=0;fontFamily=Times New Roman;fontSize=12;exitX=0.884;exitY=1.083;exitDx=0;exitDy=0;exitPerimeter=0;entryX=0;entryY=0.5;entryDx=0;entryDy=0;entryPerimeter=0;" edge="1" parent="WIyWlLk6GJQsqaUBKTNV-1" source="S1FrCzbqNe2RIB8WHqGn-53" target="S1FrCzbqNe2RIB8WHqGn-56">
          <mxGeometry width="50" height="50" relative="1" as="geometry">
            <mxPoint x="160" y="1320" as="sourcePoint" />
            <mxPoint x="160" y="1370" as="targetPoint" />
            <Array as="points">
              <mxPoint x="258" y="1375" />
            </Array>
          </mxGeometry>
        </mxCell>
        <mxCell id="S1FrCzbqNe2RIB8WHqGn-56" value="After so many unsuccessful&amp;nbsp;&lt;br&gt;guesses, if we run out of letter guesses, then?&lt;br&gt;letterGuesses ==0" style="strokeWidth=2;html=1;shape=mxgraph.flowchart.decision;whiteSpace=wrap;fontFamily=Times New Roman;fontSize=12;direction=west;align=center;" vertex="1" parent="WIyWlLk6GJQsqaUBKTNV-1">
          <mxGeometry x="-50" y="1270" width="210" height="210" as="geometry" />
        </mxCell>
        <mxCell id="S1FrCzbqNe2RIB8WHqGn-57" value="" style="endArrow=classic;html=1;rounded=0;fontFamily=Times New Roman;fontSize=12;exitX=0.5;exitY=0;exitDx=0;exitDy=0;exitPerimeter=0;" edge="1" parent="WIyWlLk6GJQsqaUBKTNV-1" source="S1FrCzbqNe2RIB8WHqGn-56">
          <mxGeometry width="50" height="50" relative="1" as="geometry">
            <mxPoint x="160" y="1630" as="sourcePoint" />
            <mxPoint x="210" y="1560" as="targetPoint" />
            <Array as="points">
              <mxPoint x="55" y="1560" />
            </Array>
          </mxGeometry>
        </mxCell>
        <mxCell id="S1FrCzbqNe2RIB8WHqGn-58" value="We lose the game, since we cannot find the word successfully." style="rounded=1;whiteSpace=wrap;html=1;absoluteArcSize=1;arcSize=14;strokeWidth=2;fontFamily=Times New Roman;fontSize=12;align=left;" vertex="1" parent="WIyWlLk6GJQsqaUBKTNV-1">
          <mxGeometry x="210" y="1510" width="100" height="100" as="geometry" />
        </mxCell>
        <mxCell id="S1FrCzbqNe2RIB8WHqGn-59" value="" style="endArrow=classic;html=1;rounded=0;fontFamily=Times New Roman;fontSize=12;exitX=0.375;exitY=0.99;exitDx=0;exitDy=0;exitPerimeter=0;" edge="1" parent="WIyWlLk6GJQsqaUBKTNV-1" source="S1FrCzbqNe2RIB8WHqGn-58">
          <mxGeometry width="50" height="50" relative="1" as="geometry">
            <mxPoint x="160" y="1640" as="sourcePoint" />
            <mxPoint x="248" y="1690" as="targetPoint" />
          </mxGeometry>
        </mxCell>
        <mxCell id="S1FrCzbqNe2RIB8WHqGn-60" value="&lt;i&gt;&lt;b&gt;totalExploretime+=15&lt;/b&gt;&lt;/i&gt;" style="rounded=1;whiteSpace=wrap;html=1;absoluteArcSize=1;arcSize=14;strokeWidth=2;fontFamily=Times New Roman;fontSize=12;" vertex="1" parent="WIyWlLk6GJQsqaUBKTNV-1">
          <mxGeometry x="186.25" y="1690" width="140" height="40" as="geometry" />
        </mxCell>
        <mxCell id="S1FrCzbqNe2RIB8WHqGn-61" value="&lt;div style=&quot;text-align: left;&quot;&gt;&lt;span style=&quot;background-color: initial;&quot;&gt;If we don&#39;t want to guess the final solution for the word,&lt;/span&gt;&lt;/div&gt;&lt;div style=&quot;text-align: left;&quot;&gt;&lt;span style=&quot;background-color: initial;&quot;&gt;then a BlackProcess for guessing the final solution will be invoked known as &lt;/span&gt;&lt;b style=&quot;background-color: initial;&quot;&gt;Solve &lt;/b&gt;&lt;span style=&quot;background-color: initial;&quot;&gt;(it uses a special AI)&lt;/span&gt;&lt;span style=&quot;background-color: initial;&quot;&gt;.&lt;/span&gt;&lt;/div&gt;&lt;div style=&quot;text-align: left;&quot;&gt;&lt;span style=&quot;background-color: initial;&quot;&gt;It returns 1, if the guess is correct, or else 0.&lt;/span&gt;&lt;/div&gt;" style="text;html=1;align=center;verticalAlign=middle;resizable=0;points=[];autosize=1;strokeColor=none;fillColor=none;fontSize=12;fontFamily=Times New Roman;" vertex="1" parent="WIyWlLk6GJQsqaUBKTNV-1">
          <mxGeometry x="-470" y="1480" width="530" height="60" as="geometry" />
        </mxCell>
      </root>
    </mxGraphModel>
  </diagram>
</mxfile>
